<svg width="50" height="47" viewBox="0 0 50 47" fill="none" xmlns="http://www.w3.org/2000/svg">
<path d="M50 9.00794L38.5 0L35.275 3.57051L46.775 12.5785L50 9.00794ZM14.7 3.57051L11.5 0L0 8.98461L3.225 12.5551L14.7 3.57051ZM26.25 14.3287H22.5V28.3307L34.375 34.9816L36.25 32.1112L26.25 26.5804V14.3287ZM25 4.99404C12.575 4.99404 2.5 14.3987 2.5 25.997C2.5 37.5953 12.55 47 25 47C37.425 47 47.5 37.5953 47.5 25.997C47.5 14.3987 37.425 4.99404 25 4.99404ZM25 42.3327C15.325 42.3327 7.5 35.0283 7.5 25.997C7.5 16.9657 15.325 9.66137 25 9.66137C34.675 9.66137 42.5 16.9657 42.5 25.997C42.5 35.0283 34.675 42.3327 25 42.3327Z" fill="black"/>
</svg>
